<svg width="26" height="26" viewBox="0 0 26 26" fill="none" xmlns="http://www.w3.org/2000/svg">
<path d="M10.235 11.9806H8.51562V10.354H10.0757C11.719 10.354 11.516 11.9806 10.235 11.9806ZM15.3004 12.9064H17.5964C17.4958 11.4302 15.5314 11.3226 15.3004 12.9064ZM10.1379 13.2529H8.51562V14.9565H10.1116C11.6709 14.9556 11.5755 13.2529 10.1379 13.2529ZM23.5 13C23.5 18.7986 18.7986 23.5 13 23.5C7.20138 23.5 2.5 18.7986 2.5 13C2.5 7.20138 7.20138 2.5 13 2.5C18.7986 2.5 23.5 7.20138 23.5 13V13ZM11.8126 12.3586C13.2721 11.6123 13.2187 8.87525 10.424 8.83412H6.875V16.4729H10.1746C13.6379 16.4729 13.5792 13.0018 11.8126 12.3586ZM14.75 9.58837H18.25V8.82275H14.75V9.58837ZM19.0751 12.8197C18.5983 9.75287 13.7788 9.57263 13.7788 13.5828C13.7788 17.543 18.3113 16.9235 18.9841 14.9477H17.3671C16.8027 15.6022 15.1726 15.4124 15.2636 13.9117H19.1224C19.1302 13.4261 19.1145 13.0779 19.0751 12.8197V12.8197Z" fill="#E3252F"/>
</svg>
