<svg width="26" height="26" viewBox="0 0 26 26" fill="none" xmlns="http://www.w3.org/2000/svg">
<path d="M17.4803 2.99805H8.51784C5.47423 2.99805 2.99805 5.47434 2.99805 8.51796V17.4804C2.99805 20.5242 5.47423 23.0003 8.51784 23.0003H17.4803C20.5242 23.0003 23.0003 20.524 23.0003 17.4804V8.51796C23.0005 5.47434 20.5242 2.99805 17.4803 2.99805ZM21.2258 17.4804C21.2258 19.5456 19.5456 21.2256 17.4804 21.2256H8.51784C6.4528 21.2258 4.77275 19.5456 4.77275 17.4804V8.51796C4.77275 6.45291 6.4528 4.77275 8.51784 4.77275H17.4803C19.5455 4.77275 21.2256 6.45291 21.2256 8.51796V17.4804H21.2258Z" fill="#E3252F"/>
<path d="M12.9998 7.84473C10.1578 7.84473 7.8457 10.1568 7.8457 12.9988C7.8457 15.8407 10.1578 18.1527 12.9998 18.1527C15.8418 18.1527 18.1539 15.8407 18.1539 12.9988C18.1539 10.1568 15.8418 7.84473 12.9998 7.84473ZM12.9998 16.3778C11.1365 16.3778 9.6204 14.862 9.6204 12.9987C9.6204 11.1353 11.1364 9.61931 12.9998 9.61931C14.8632 9.61931 16.3792 11.1353 16.3792 12.9987C16.3792 14.862 14.8631 16.3778 12.9998 16.3778Z" fill="#E3252F"/>
<path d="M18.3679 6.33984C18.0259 6.33984 17.69 6.47827 17.4486 6.72081C17.2059 6.96217 17.0664 7.29818 17.0664 7.64129C17.0664 7.98333 17.206 8.31923 17.4486 8.56177C17.6899 8.80313 18.0259 8.94274 18.3679 8.94274C18.711 8.94274 19.0458 8.80313 19.2883 8.56177C19.5309 8.31923 19.6693 7.98322 19.6693 7.64129C19.6693 7.29818 19.5309 6.96217 19.2883 6.72081C19.047 6.47827 18.711 6.33984 18.3679 6.33984Z" fill="#E3252F"/>
</svg>
