<svg width="26" height="26" viewBox="0 0 26 26" fill="none" xmlns="http://www.w3.org/2000/svg">
<path d="M13 2.5C7.21033 2.5 2.5 7.21033 2.5 13C2.5 17.5123 5.36129 21.3682 9.36443 22.8504C9.24913 21.8225 9.26722 20.1391 9.45747 19.324C9.63563 18.5584 10.6085 14.4451 10.6085 14.4451C10.6085 14.4451 10.3148 13.857 10.3148 12.9883C10.3148 11.6232 11.1057 10.6047 12.0906 10.6047C12.9283 10.6047 13.3322 11.2336 13.3322 11.9871C13.3322 12.8298 12.7965 14.0884 12.519 15.2549C12.2876 16.2322 13.0091 17.0291 13.9724 17.0291C15.7169 17.0291 17.0578 15.1895 17.0578 12.5345C17.0578 10.1846 15.3696 8.54125 12.9585 8.54125C10.166 8.54125 8.5269 10.636 8.5269 12.8011C8.5269 13.6444 8.85157 14.5489 9.25738 15.0412C9.33741 15.1386 9.34911 15.2235 9.32534 15.3224C9.25097 15.6324 9.08563 16.2991 9.05278 16.4357C9.01012 16.6158 8.91045 16.6531 8.72471 16.5667C7.49858 15.9959 6.73222 14.2039 6.73222 12.764C6.73222 9.66812 8.98142 6.82433 13.2178 6.82433C16.6229 6.82433 19.2689 9.25022 19.2689 12.4934C19.2689 15.8762 17.1356 18.5984 14.1755 18.5984C13.1808 18.5984 12.2461 18.0816 11.9264 17.4712C11.9264 17.4712 11.4341 19.3452 11.3144 19.8046C11.1079 20.5991 10.2237 22.2452 9.7798 22.9928C10.7952 23.3208 11.8769 23.5 13 23.5C18.7899 23.5 23.5 18.7899 23.5 13C23.5 7.21033 18.7899 2.5 13 2.5Z" fill="#E3252F"/>
</svg>
