<svg width="26" height="26" viewBox="0 0 26 26" fill="none" xmlns="http://www.w3.org/2000/svg">
<path d="M24 6.48717C23.2274 6.83017 22.397 7.06117 21.5255 7.1653C22.4154 6.63242 23.0987 5.78805 23.4199 4.7818C22.5877 5.2753 21.6655 5.63405 20.6837 5.82742C19.8989 4.99005 18.778 4.4668 17.539 4.4668C14.7574 4.4668 12.7134 7.06205 13.3416 9.75617C9.762 9.5768 6.5875 7.8618 4.46213 5.25517C3.33338 7.19155 3.87675 9.72467 5.79475 11.0074C5.0895 10.9847 4.4245 10.7913 3.84437 10.4684C3.79712 12.4643 5.22775 14.3315 7.29975 14.7472C6.69338 14.9117 6.02925 14.9502 5.35375 14.8207C5.9015 16.5322 7.49225 17.7773 9.37875 17.8123C7.5675 19.2324 5.2855 19.8668 3 19.5973C4.90662 20.8197 7.172 21.5328 9.6045 21.5328C17.6038 21.5328 22.1231 14.7769 21.8501 8.71755C22.6919 8.10942 23.4225 7.3508 24 6.48717V6.48717Z" fill="#E3252F"/>
</svg>
