<svg width="36" height="36" viewBox="0 0 36 36" fill="none" xmlns="http://www.w3.org/2000/svg">
<path d="M36 18C36 27.9411 27.9411 36 18 36C8.05887 36 0 27.9411 0 18C0 8.05887 8.05887 0 18 0C27.9411 0 36 8.05887 36 18Z" fill="white"/>
<path fill-rule="evenodd" clip-rule="evenodd" d="M18 35C27.3888 35 35 27.3888 35 18C35 8.61116 27.3888 1 18 1C8.61116 1 1 8.61116 1 18C1 27.3888 8.61116 35 18 35ZM18 36C27.9411 36 36 27.9411 36 18C36 8.05887 27.9411 0 18 0C8.05887 0 0 8.05887 0 18C0 27.9411 8.05887 36 18 36Z" fill="#E3252F"/>
<path fill-rule="evenodd" clip-rule="evenodd" d="M15.7775 21.699V14.3907C15.7775 13.1491 14.771 12.1426 13.5294 12.1426C12.2878 12.1426 11.2812 13.1491 11.2812 14.3907V21.699C11.2812 22.9406 12.2878 23.9471 13.5294 23.9471C14.771 23.9471 15.7775 22.9406 15.7775 21.699ZM13.5294 11.1426C11.7355 11.1426 10.2812 12.5968 10.2812 14.3907V21.699C10.2812 23.4929 11.7355 24.9471 13.5294 24.9471C15.3233 24.9471 16.7775 23.4929 16.7775 21.699V14.3907C16.7775 12.5968 15.3233 11.1426 13.5294 11.1426Z" fill="#E3252F"/>
<path d="M16.7775 21.6993C16.7775 23.4932 15.3233 24.9474 13.5294 24.9474C11.7355 24.9474 10.2812 23.4932 10.2812 21.6993C10.2812 19.9054 11.7355 18.4512 13.5294 18.4512C15.3233 18.4512 16.7775 19.9054 16.7775 21.6993Z" fill="#E3252F"/>
<path fill-rule="evenodd" clip-rule="evenodd" d="M24.715 21.699V14.3907C24.715 13.1491 23.7085 12.1426 22.4669 12.1426C21.2253 12.1426 20.2188 13.1491 20.2188 14.3907V21.699C20.2188 22.9406 21.2253 23.9471 22.4669 23.9471C23.7085 23.9471 24.715 22.9406 24.715 21.699ZM22.4669 11.1426C20.673 11.1426 19.2188 12.5968 19.2188 14.3907V21.699C19.2188 23.4929 20.673 24.9471 22.4669 24.9471C24.2608 24.9471 25.715 23.4929 25.715 21.699V14.3907C25.715 12.5968 24.2608 11.1426 22.4669 11.1426Z" fill="#E3252F"/>
<path d="M25.715 21.6993C25.715 23.4932 24.2608 24.9474 22.4669 24.9474C20.673 24.9474 19.2188 23.4932 19.2188 21.6993C19.2188 19.9054 20.673 18.4512 22.4669 18.4512C24.2608 18.4512 25.715 19.9054 25.715 21.6993Z" fill="#E3252F"/>
</svg>
