<svg width="125" height="126" viewBox="0 0 125 126" fill="none" xmlns="http://www.w3.org/2000/svg">
<path d="M120.855 55.8819C125.6 59.1639 125.6 66.1778 120.855 69.4598V69.4598C117.259 71.9468 116.226 76.8064 118.499 80.541V80.541C121.5 85.4695 118.647 91.8769 112.977 92.945V92.945C108.68 93.7544 105.76 97.7737 106.318 102.11V102.11C107.054 107.833 101.842 112.526 96.2274 111.196V111.196C91.973 110.187 87.6704 112.671 86.4164 116.86V116.86C84.7615 122.387 78.0909 124.555 73.5031 121.056V121.056C70.0266 118.404 65.0856 118.924 62.2363 122.24V122.24C58.4762 126.616 51.5008 125.883 48.7328 120.821V120.821C46.6353 116.984 41.9103 115.449 37.9585 117.32V117.32C32.7434 119.789 26.6692 116.282 26.1997 110.531V110.531C25.8439 106.173 22.1518 102.849 17.7808 102.951V102.951C12.0124 103.085 7.88978 97.4103 9.79989 91.9658V91.9658C11.2473 87.8401 9.22656 83.3014 5.19206 81.6164V81.6164C-0.132156 79.3928 -1.59042 72.5322 2.36906 68.3352V68.3352C5.36941 65.1549 5.36941 60.1867 2.36906 57.0064V57.0064C-1.59041 52.8095 -0.132154 45.9489 5.19206 43.7253V43.7253C9.22656 42.0403 11.2473 37.5016 9.79989 33.3759V33.3759C7.88979 27.9313 12.0124 22.257 17.7808 22.3912V22.3912C22.1518 22.4928 25.8439 19.1685 26.1997 14.8107V14.8107C26.6692 9.05996 32.7434 5.55303 37.9585 8.02179V8.02179C41.9103 9.89252 46.6354 8.35727 48.7328 4.521V4.521C51.5008 -0.541616 58.4762 -1.27476 62.2363 3.10172V3.10172C65.0856 6.41807 70.0266 6.93738 73.5031 4.2859V4.2859C78.0909 0.786819 84.7615 2.95422 86.4164 8.4817V8.4817C87.6704 12.6702 91.973 15.1543 96.2274 14.1461V14.1461C101.842 12.8156 107.054 17.5088 106.318 23.2315V23.2315C105.76 27.568 108.68 31.5873 112.977 32.3967V32.3967C118.647 33.4647 121.5 39.8722 118.499 44.8007V44.8007C116.226 48.5353 117.259 53.3949 120.855 55.8819V55.8819Z" fill="#FDCB30"/>
<path d="M61.671 52.6711C62.898 57.5976 66.7446 61.4441 71.671 62.6711C66.7446 63.8982 62.898 67.7447 61.671 72.6711C60.444 67.7447 56.5975 63.8982 51.671 62.6711C56.5975 61.4441 60.444 57.5976 61.671 52.6711Z" fill="#E3252F"/>
<path fill-rule="evenodd" clip-rule="evenodd" d="M54.6182 61.5655C53.693 62.0401 52.7058 62.4134 51.671 62.6711C52.7058 62.9289 53.693 63.3022 54.6182 63.7768C57.1726 65.0871 59.255 67.1696 60.5653 69.724C61.04 70.6492 61.4133 71.6363 61.671 72.6711C61.9288 71.6363 62.3021 70.6492 62.7767 69.724C64.087 67.1696 66.1695 65.0871 68.7238 63.7768C69.6491 63.3022 70.6362 62.9289 71.671 62.6711C70.6362 62.4134 69.6491 62.0401 68.7238 61.5655C66.1695 60.2552 64.087 58.1727 62.7767 55.6183C62.3021 54.6931 61.9288 53.7059 61.671 52.6711C61.4133 53.7059 61.04 54.6931 60.5653 55.6183C59.255 58.1727 57.1726 60.2552 54.6182 61.5655ZM56.7153 62.6711C58.718 63.9289 60.4133 65.6242 61.671 67.6269C62.9288 65.6242 64.624 63.9289 66.6268 62.6711C64.624 61.4134 62.9288 59.7181 61.671 57.7154C60.4133 59.7181 58.718 61.4134 56.7153 62.6711Z" fill="#E3252F"/>
<path d="M100.824 77.3366C100.011 76.9493 99.2431 76.9154 98.5356 77.2562C97.8281 77.5969 97.2702 78.1817 96.8726 79.0158C96.5266 79.7415 96.4107 80.4308 96.525 81.0834C96.6393 81.7361 97.0079 82.2176 97.6362 82.5171C98.7194 83.0335 99.5822 82.6738 100.403 81.5365L101.23 80.4153C101.743 79.7025 102.198 79.3611 102.859 79.6761C103.606 80.0324 103.82 80.8121 103.35 81.7978C102.813 82.9243 101.848 83.3021 100.706 82.7976L100.342 83.674C101.874 84.3912 103.27 83.8336 104.081 82.1329C104.437 81.3855 104.532 80.7128 104.364 80.0879C104.208 79.4683 103.834 79.0244 103.239 78.7404C102.188 78.2395 101.289 78.6751 100.63 79.5839L99.7243 80.8139C99.1327 81.6087 98.6172 81.8814 97.9998 81.5871C97.2632 81.236 97.1289 80.3743 97.6092 79.3669C98.1514 78.2295 99.2036 77.6676 100.475 78.2073L100.824 77.3366Z" fill="#E3252F"/>
<path d="M95.4824 87.2577L94.4083 88.596C93.2441 90.0466 93.2607 91.4446 94.4212 92.376C95.5723 93.2999 96.9408 93.0134 98.105 91.5628L99.825 89.4197L93.9291 84.6877L93.2831 85.4926L95.4824 87.2577ZM96.1469 87.7909L98.5146 89.6912L97.4556 91.0108C96.6369 92.0309 95.8008 92.1908 95.0521 91.5899C94.294 90.9815 94.2691 90.1306 95.0878 89.1105L96.1469 87.7909Z" fill="#E3252F"/>
<path d="M84.2444 95.5802L87.6901 92.8761L89.2977 94.9247L86.6261 97.0212L87.1521 97.6915L89.8237 95.5949L91.2905 97.4641L87.9298 100.101L88.4632 100.781L92.6169 97.5215L87.9497 91.5742L83.711 94.9005L84.2444 95.5802Z" fill="#E3252F"/>
<path d="M82.3932 100.3C81.9199 99.2363 81.2104 98.5276 80.2659 98.1467C79.3104 97.7708 78.3637 97.7981 77.4099 98.2227C76.4342 98.657 75.7888 99.2727 75.4896 100.076C75.1793 100.884 75.1896 101.733 75.5191 102.65L76.4595 102.284C76.2093 101.634 76.1943 101.01 76.3987 100.407C76.603 99.8034 77.0585 99.3511 77.7711 99.0339C78.4727 98.7216 79.166 98.7151 79.835 99.0084C80.509 99.3126 81.0418 99.8898 81.4175 100.734C81.7933 101.578 81.8656 102.36 81.6357 103.054C81.4107 103.758 80.9419 104.269 80.2403 104.581C79.5277 104.898 78.8869 104.934 78.3019 104.682C77.7169 104.43 77.2634 104.002 76.9475 103.381L76.0461 103.834C76.5072 104.693 77.1313 105.269 77.9393 105.579C78.7363 105.894 79.6257 105.827 80.6014 105.392C81.5552 104.968 82.2091 104.283 82.5692 103.321C82.9183 102.365 82.8666 101.363 82.3932 100.3Z" fill="#E3252F"/>
<path d="M71.4187 108.289L69.7762 100.91L68.7572 101.136L70.3997 108.516L71.4187 108.289Z" fill="#E3252F"/>
<path d="M62.2124 108.236L62.1644 108.237L60.6814 104.921L63.452 104.836L62.2124 108.236ZM59.3399 101.913L58.2364 101.948L61.6123 109.407L62.7517 109.372L65.6009 101.72L64.5814 101.752L63.7623 103.998L60.32 104.104L59.3399 101.913Z" fill="#E3252F"/>
<path d="M54.0562 108.936L55.6424 101.544L50.5034 100.441L50.3221 101.286L54.4403 102.17L53.0354 108.717L54.0562 108.936Z" fill="#E3252F"/>
<path d="M36.419 93.1774L34.4086 91.3216C33.5356 90.5158 32.62 90.1279 31.6527 90.1496C30.6767 90.1631 29.7942 90.606 28.9966 91.4701C28.1989 92.3343 27.8279 93.2493 27.8923 94.2233C27.9479 95.1891 28.4078 96.0709 29.2807 96.8767L31.2911 98.7325L36.419 93.1774ZM35.074 93.0954L31.1019 97.3983L29.9027 96.2914C28.5536 95.046 28.553 93.543 29.7902 92.2027C31.0274 90.8624 32.5257 90.7431 33.8748 91.9884L35.074 93.0954Z" fill="#E3252F"/>
<path d="M26.3177 82.7201L28.7497 86.3629L26.584 87.8087L24.6984 84.9843L23.9898 85.4574L25.8754 88.2818L23.8993 89.6011L21.5273 86.0481L20.8087 86.5278L23.7404 90.9191L30.0279 86.7215L27.0363 82.2403L26.3177 82.7201Z" fill="#E3252F"/>
<path d="M17.9535 77.6344L17.9372 77.5893L20.6259 75.147L21.5704 77.7531L17.9535 77.6344ZM23.0662 72.9351L22.6901 71.8972L16.6538 77.429L17.0422 78.5008L25.2006 78.8243L24.8531 77.8653L22.4633 77.7869L21.2898 74.549L23.0662 72.9351Z" fill="#E3252F"/>
<path d="M14.7852 70.3348L22.3012 69.5204L21.735 64.295L20.876 64.3881L21.3298 68.5756L14.6727 69.2969L14.7852 70.3348Z" fill="#E3252F"/>
<path d="M21.1613 48.6898C21.9849 49.0527 22.7538 49.0637 23.4508 48.702C24.1478 48.3404 24.6881 47.7392 25.0607 46.8937C25.3849 46.158 25.4802 45.4656 25.3466 44.8166C25.213 44.1676 24.8301 43.6973 24.1932 43.4166C23.0951 42.9327 22.2434 43.318 21.4563 44.4792L20.6631 45.6246C20.1719 46.3523 19.7271 46.707 19.0573 46.4119C18.2996 46.078 18.0632 45.305 18.5035 44.3057C19.0068 43.1637 19.9595 42.7574 21.1161 43.2277L21.4545 42.3409C19.9013 41.6695 18.5227 42.2685 17.763 43.9925C17.4291 44.7502 17.3544 45.4254 17.5404 46.045C17.7153 46.6598 18.1017 47.0923 18.7057 47.3585C19.7708 47.8279 20.6564 47.3657 21.2883 46.4377L22.1567 45.1812C22.7244 44.3692 23.2315 44.0813 23.8574 44.3571C24.6042 44.6861 24.764 45.5434 24.314 46.5646C23.8059 47.7176 22.7709 48.3106 21.4839 47.809L21.1613 48.6898Z" fill="#E3252F"/>
<path d="M26.234 38.5264L27.2686 37.1574C28.39 35.6734 28.3327 34.2764 27.1455 33.3793C25.968 32.4894 24.6084 32.8157 23.487 34.2996L21.8302 36.492L27.8616 41.05L28.4838 40.2266L26.234 38.5264ZM25.5543 38.0127L23.1321 36.1823L24.1522 34.8324C24.9408 33.7889 25.7719 33.6047 26.5378 34.1835C27.3133 34.7695 27.363 35.6193 26.5744 36.6628L25.5543 38.0127Z" fill="#E3252F"/>
<path d="M37.0587 29.9926L33.7035 32.8081L32.0296 30.8133L34.6311 28.6304L34.0834 27.9777L31.482 30.1607L29.9547 28.3406L33.2272 25.5945L32.6718 24.9327L28.6271 28.3267L33.4867 34.1179L37.6141 30.6545L37.0587 29.9926Z" fill="#E3252F"/>
<path d="M38.7131 25.1911C39.2179 26.2399 39.9482 26.9272 40.9036 27.2797C41.8698 27.6271 42.8153 27.5716 43.756 27.1188C44.7184 26.6557 45.3452 26.0211 45.6204 25.2094C45.9065 24.3926 45.871 23.544 45.5143 22.6369L44.5852 23.0308C44.8546 23.6736 44.8881 24.2967 44.7018 24.9057C44.5155 25.5148 44.0738 25.9804 43.3709 26.3187C42.6789 26.6517 41.9861 26.6789 41.3086 26.4056C40.6259 26.1216 40.0762 25.5605 39.6755 24.7279C39.2748 23.8953 39.1792 23.1156 39.3883 22.4157C39.5923 21.7049 40.0457 21.1804 40.7377 20.8474C41.4405 20.5091 42.0801 20.4544 42.6723 20.6887C43.2645 20.9231 43.7306 21.338 44.0648 21.9495L44.9523 21.4692C44.4659 20.6245 43.8249 20.0674 43.008 19.7814C42.202 19.4901 41.315 19.5841 40.3526 20.0472C39.4119 20.5 38.7787 21.2042 38.4473 22.1761C38.1268 23.1427 38.2083 24.1422 38.7131 25.1911Z" fill="#E3252F"/>
<path d="M49.3887 16.8369L51.2551 24.1629L52.2668 23.9052L50.4004 16.5792L49.3887 16.8369Z" fill="#E3252F"/>
<path d="M58.5782 16.5599L58.6261 16.5569L60.2108 19.8254L57.4441 19.9964L58.5782 16.5599ZM61.6444 22.7906L62.7463 22.7225L59.1419 15.3708L58.0041 15.4412L55.3924 23.177L56.4104 23.1141L57.1598 20.8436L60.5972 20.6311L61.6444 22.7906Z" fill="#E3252F"/>
<path d="M66.8164 15.5668L65.4568 23.0035L70.6271 23.9488L70.7825 23.0988L66.6392 22.3414L67.8434 15.7545L66.8164 15.5668Z" fill="#E3252F"/>
<path d="M84.936 30.6799L87.006 32.4689C87.9048 33.2457 88.8327 33.6035 89.7987 33.5502C90.7738 33.5047 91.6413 33.0332 92.4103 32.1434C93.1792 31.2537 93.5201 30.327 93.4239 29.3556C93.3367 28.3921 92.8482 27.5258 91.9494 26.749L89.8793 24.96L84.936 30.6799ZM86.283 30.7179L90.1121 26.2873L91.3469 27.3544C92.736 28.5549 92.7858 30.0572 91.5931 31.4372C90.4004 32.8173 88.9068 32.9856 87.5177 31.785L86.283 30.7179Z" fill="#E3252F"/>
<path d="M95.4884 40.9321L92.9509 37.3621L95.0733 35.8535L97.0408 38.6215L97.7353 38.1279L95.7678 35.3599L97.7044 33.9833L100.179 37.4653L100.884 36.9648L97.8247 32.6612L91.6627 37.041L94.7842 41.4327L95.4884 40.9321Z" fill="#E3252F"/>
<path d="M104.022 45.7782L104.04 45.8228L101.426 48.3447L100.403 45.7681L104.022 45.7782ZM99.0528 50.6288L99.46 51.655L105.328 45.9445L104.907 44.8849L96.7427 44.8064L97.1189 45.7545L99.5099 45.7611L100.78 48.9624L99.0528 50.6288Z" fill="#E3252F"/>
<path d="M107.409 52.9392L99.9218 53.9842L100.648 59.1898L101.504 59.0703L100.922 54.8988L107.553 53.9731L107.409 52.9392Z" fill="#E3252F"/>
</svg>
