<svg width="23" height="23" viewBox="0 0 23 23" fill="none" xmlns="http://www.w3.org/2000/svg">
<mask id="mask0_137_3723" style="mask-type:alpha" maskUnits="userSpaceOnUse" x="0" y="0" width="23" height="23">
<rect x="0.5" y="0.5" width="22" height="22" fill="#D9D9D9"/>
</mask>
<g mask="url(#mask0_137_3723)">
<path d="M6.18751 12.5901L8.89428 3.35931C8.95673 3.14632 9.15212 3 9.37408 3H15.656C16.0358 3 16.2769 3.40687 16.0945 3.74007L12.9047 9.56762C12.7223 9.90082 12.9635 10.3077 13.3433 10.3077H16.0385C16.6263 10.3077 16.9523 10.9883 16.584 11.4463L9.59565 20.137C9.28057 20.5288 8.64925 20.2628 8.70961 19.7637L9.43192 13.7908C9.46793 13.493 9.23548 13.2308 8.93553 13.2308H6.66731C6.33368 13.2308 6.09363 12.9102 6.18751 12.5901Z" fill="#FFCA35"/>
</g>
</svg>
